<?xml version="1.0" encoding="UTF-8"?>
<svg version="1.1" xmlns="http://www.w3.org/2000/svg" width="1024" height="1024">
<path d="M0 0 C337.92 0 675.84 0 1024 0 C1024 337.92 1024 675.84 1024 1024 C686.08 1024 348.16 1024 0 1024 C0 686.08 0 348.16 0 0 Z " fill="#030202" transform="translate(0,0)"/>
<path d="M0 0 C337.92 0 675.84 0 1024 0 C1024 337.92 1024 675.84 1024 1024 C686.08 1024 348.16 1024 0 1024 C0 686.08 0 348.16 0 0 Z M451 66 C449.89962402 66.14453613 448.79924805 66.28907227 447.66552734 66.43798828 C405.64449565 71.98306962 363.73361839 83.62194691 325.4140625 101.85693359 C322.90012574 103.04729078 320.37344839 104.20683418 317.84375 105.36328125 C290.76369694 117.84592489 265.67085914 133.90274332 242 152 C241.40010254 152.45713379 240.80020508 152.91426758 240.18212891 153.38525391 C232.47900708 159.27898581 225.14467381 165.43394414 218 172 C216.71217819 173.12939929 215.42064578 174.254585 214.125 175.375 C203.84186124 184.34672633 193.73217108 193.52387071 184.83203125 203.890625 C182.84688413 206.17629546 180.7996017 208.39701378 178.75 210.625 C173.70550697 216.22336473 169.08332928 222.10669645 164.48876953 228.07421875 C162.97099409 230.03752028 161.43774727 231.98796363 159.90234375 233.9375 C113.95446681 292.64554974 84.52263911 363.64594194 72.33001709 437.01904297 C72.01115255 438.9330558 71.68274954 440.84547204 71.35400391 442.7578125 C68.00099091 463.13647354 67.60901589 483.54397818 67.56743622 504.15404129 C67.56260501 506.20541093 67.55334528 508.25672394 67.54351807 510.30807495 C67.24673198 610.74863499 100.57158423 705.96063997 173.515625 801.24462891 C174.62133139 802.55219946 175.69455188 803.88737529 176.75 805.23583984 C183.31140386 813.55476259 190.66809875 820.97236211 198.17382812 828.43457031 C200.3708284 830.62084876 202.55692678 832.81761938 204.7421875 835.015625 C212.1930282 842.47348369 219.69460718 849.49579852 228 856 C229.10257104 856.9339032 230.19886115 857.87533907 231.28515625 858.828125 C249.81922773 874.99004387 270.73312059 888.71138074 292 901 C292.95567871 901.55905029 292.95567871 901.55905029 293.93066406 902.12939453 C359.40062208 940.27990921 434.64562223 960.19098763 510.3059082 960.18530273 C513.53285104 960.18748 516.75944574 960.20568122 519.98632812 960.22460938 C534.09286618 960.26252494 547.97411995 959.48200654 562 958 C562.9253656 957.90441803 563.8507312 957.80883606 564.80413818 957.71035767 C637.01131968 950.17388269 708.2471773 922.25151462 766.83154297 879.57861328 C769.14283551 877.89601729 771.4640276 876.22758912 773.78515625 874.55859375 C782.92897992 867.94348641 791.68017794 861.068509 800.13378906 853.5949707 C802.42411035 851.63753102 804.78502228 849.7767875 807.140625 847.8984375 C813.02194421 843.10486227 818.37322805 837.89747194 823.69921875 832.5065918 C825.25724128 830.93017322 826.82325807 829.36204482 828.390625 827.79492188 C833.80047326 822.36584506 839.01710878 816.82632239 844 811 C845.4132355 809.4551874 846.82940409 807.91304675 848.25 806.375 C853.83621393 800.17439706 858.92805608 793.62170457 864 787 C864.49435547 786.35724121 864.98871094 785.71448242 865.49804688 785.05224609 C919.12364077 715.15608107 949.37904246 631.5421239 957 544 C957.14356934 542.37300171 957.14356934 542.37300171 957.29003906 540.71313477 C958.0638069 531.07778388 958.24186755 521.47349119 958.25 511.8125 C958.25100708 510.97117523 958.25201416 510.12985046 958.25305176 509.26303101 C958.1730989 409.15852083 925.14651862 310.41129037 859.24365234 226.54785156 C858.06922482 225.08615732 856.90347291 223.61750471 855.73828125 222.1484375 C850.72104458 215.89715877 845.39469543 209.99733627 839.92578125 204.14453125 C837.30585318 201.34008917 834.74025074 198.49086497 832.1875 195.625 C826.85890652 189.69262705 821.32261854 184.19824013 815.27734375 179 C813.10234365 177.08987984 810.98521292 175.12650434 808.87280273 173.14770508 C801.90964479 166.64989266 794.56925417 160.77235139 787 155 C786.37609375 154.51917969 785.7521875 154.03835937 785.109375 153.54296875 C770.09738873 141.97885738 754.42535124 131.45212956 738 122 C736.98848877 121.41702148 736.98848877 121.41702148 735.95654297 120.82226562 C730.68135238 117.79952666 725.35930688 114.87078956 720 112 C719.17677246 111.55897949 718.35354492 111.11795898 717.50537109 110.66357422 C684.50253961 93.16923661 648.39654278 81.10346138 612 73 C610.94458008 72.76442383 609.88916016 72.52884766 608.80175781 72.28613281 C581.95848773 66.42957124 553.83671795 62.90847789 526.3515625 62.796875 C525.18813828 62.78990601 524.02471405 62.78293701 522.82603455 62.77575684 C519.09231909 62.75846471 515.35875383 62.75203701 511.625 62.75 C509.71133133 62.74848938 509.71133133 62.74848938 507.75900269 62.74694824 C488.62855975 62.75716886 469.95584988 63.32061678 451 66 Z " fill="#FEFEFE" transform="translate(0,0)"/>
<path d="M0 0 C2.04792199 -0.00439917 4.09578172 -0.01345088 6.14368439 -0.02319717 C76.12189992 -0.23084289 146.852754 16.44521883 208.36212921 50.21816635 C210.50359571 51.38581234 212.65901105 52.52195102 214.82062531 53.6517601 C239.29843249 66.62004152 262.25029181 83.15117241 283.05109406 101.3861351 C285.00679994 103.09766878 286.98727855 104.74964626 289.01984406 106.37026596 C295.87935784 111.84075284 302.13291108 117.69494652 308.28937531 123.9264183 C309.84739783 125.50283688 311.41341462 127.07096528 312.98078156 128.63808823 C318.38961275 134.06582619 323.63279079 139.58588208 328.59015656 145.4330101 C329.43578156 146.39722885 330.28140656 147.3614476 331.15265656 148.3548851 C390.60084995 217.33003257 426.22213169 305.02936135 434.59015656 395.4330101 C434.68514435 396.42671616 434.78013214 397.42042221 434.87799835 398.44424057 C443.48870211 500.94966079 415.23603981 603.0193247 340.59015656 710.4330101 C339.79222687 711.4436351 338.99429718 712.4542601 338.17218781 713.4955101 C330.25083518 723.36565567 321.6210633 732.57357627 312.59015656 741.4330101 C309.60366479 744.40893021 306.63201608 747.39925802 303.66437531 750.3939476 C302.20219325 751.86535894 300.73995225 753.3367117 299.27765656 754.8080101 C298.55642609 755.53761948 297.83519562 756.26722885 297.09210968 757.0189476 C289.85734071 764.28615948 282.15149848 770.88593804 274.21515656 777.3705101 C273.1497464 778.25319565 273.1497464 778.25319565 272.06281281 779.15371323 C271.0438089 779.98612534 271.0438089 779.98612534 270.00421906 780.83535385 C269.39529816 781.33542953 268.78637726 781.83550522 268.15900421 782.35073471 C266.59015656 783.4330101 266.59015656 783.4330101 264.59015656 783.4330101 C264.2518985 782.2583519 264.2518985 782.2583519 263.90680695 781.05996323 C251.42466673 737.96214274 236.56879167 695.34781828 203.59015656 663.4330101 C204.20890656 662.4223851 204.82765656 661.4117601 205.46515656 660.3705101 C210.42030714 651.5496392 210.87048586 641.95164661 208.59015656 632.1830101 C206.11781303 624.04438645 202.03309608 615.84046795 197.46271515 608.66225815 C194.65890295 604.22528472 194.13157201 600.94832718 194.09015656 595.7455101 C193.67526785 583.17802173 189.71876221 571.96421974 180.40265656 563.1830101 C172.10946783 556.65008244 162.90462321 554.53168938 152.59015656 553.4330101 C155.299236 550.22488971 158.00080977 547.05127576 160.89875031 544.0111351 C171.2211466 533.12511342 178.20660965 520.93903539 184.59015656 507.4330101 C185.65206207 507.47228622 185.65206207 507.47228622 186.73542023 507.5123558 C211.38783907 508.29885976 236.22653634 506.3290863 255.21515656 488.8705101 C257.05345967 487.09550321 258.8213742 485.27966337 260.59015656 483.4330101 C261.20375031 482.8039476 261.81734406 482.1748851 262.44953156 481.5267601 C276.99382957 465.63299114 282.00457004 442.67167557 281.73859406 421.6595726 C280.84372638 402.20797517 274.90725211 383.84695238 260.52765656 370.3080101 C256.46602167 366.8947113 252.4624183 364.5082327 247.59015656 362.4330101 C247.74871124 361.88258041 247.90726593 361.33215073 248.07062531 360.76504135 C248.94136434 357.66213154 249.76788887 354.54914361 250.59015656 351.4330101 C250.77771515 350.73514389 250.96527374 350.03727768 251.15851593 349.31826401 C256.96020248 327.47744885 260.02760124 305.01960588 260.59015656 282.4330101 C261.52343781 283.08398666 262.45671906 283.73496323 263.41828156 284.40566635 C266.61672665 286.44999271 267.90876077 287.14883706 271.59015656 286.4330101 C277.97270008 276.85919482 273.01469811 258.08460059 270.91437531 247.4720726 C262.21929169 206.58312445 244.05215616 171.98708831 215.59015656 141.4330101 C214.86699249 140.64410385 214.14382843 139.8551976 213.39875031 139.0423851 C201.0321282 126.06894059 186.41939356 116.63459138 170.59015656 108.4330101 C174.38201551 107.4154997 177.6593997 107.43090226 181.56671906 107.59316635 C183.82088115 107.63502469 183.82088115 107.63502469 185.59015656 105.4330101 C185.16004558 101.45846609 183.11311575 99.54590578 180.05109406 97.07754135 C167.72771491 88.84239433 150.49954409 82.54459641 135.63312531 83.75722885 C118.12516208 84.79541634 118.12516208 84.79541634 113.64679718 82.38857651 C110.38052456 79.35922987 108.60110741 75.33972608 106.59015656 71.4330101 C100.12047779 63.93659455 90.4155356 58.16804727 80.59015656 56.4330101 C78.69605438 56.34192174 76.79894095 56.30294659 74.90265656 56.3080101 C73.92941437 56.30543198 72.95617218 56.30285385 71.95343781 56.3001976 C69.63378045 56.16728048 69.63378045 56.16728048 68.59015656 57.4330101 C67.77665163 62.08160965 69.0631214 64.53826825 71.59015656 68.3080101 C72.57707127 69.69243213 73.57295489 71.07068644 74.59015656 72.4330101 C71.1240631 72.4330101 70.44891415 71.83426301 67.65265656 69.9330101 C24.80644135 43.68041581 -33.74087706 44.9719022 -80.89812469 56.0658226 C-114.07584827 64.1794051 -145.66096291 78.45553832 -173.40984344 98.4330101 C-173.99040497 98.85066635 -174.57096649 99.2683226 -175.16912079 99.6986351 C-178.63425512 102.21205606 -182.03479717 104.80027606 -185.40984344 107.4330101 C-186.26835907 108.09816635 -187.12687469 108.7633226 -188.01140594 109.4486351 C-211.35940298 127.80897952 -228.89975147 150.29861621 -244.40984344 175.4330101 C-244.79881805 176.06223373 -245.18779266 176.69145737 -245.58855438 177.33974838 C-256.96614709 196.00472376 -265.13461573 216.54848819 -271.40984344 237.4330101 C-271.9493161 239.17131088 -271.9493161 239.17131088 -272.49968719 240.94472885 C-274.52272749 248.07664509 -275.00629386 255.03473092 -274.40984344 262.4330101 C-273.27714015 263.79665543 -273.27714015 263.79665543 -270.28484344 263.4955101 C-264.97593648 262.69808169 -262.53383364 258.40759168 -259.40984344 254.4330101 C-258.41820739 253.42471553 -257.41947078 252.42328918 -256.40984344 251.4330101 C-256.91067868 256.44136246 -257.54309261 261.38382956 -258.38249969 266.3470726 C-263.6180663 297.96913614 -262.81297537 329.65028104 -254.14421844 360.62441635 C-253.40984344 363.4330101 -253.40984344 363.4330101 -253.40984344 366.4330101 C-254.87859344 367.8705101 -254.87859344 367.8705101 -256.90984344 369.4330101 C-271.04056282 381.42044576 -277.77714896 399.36871082 -279.40984344 417.4330101 C-280.99866413 440.44929342 -275.71766473 465.21536203 -260.52312469 483.1283226 C-247.57482104 497.24939313 -231.27452107 504.79178298 -212.40984344 507.4330101 C-210.02810896 507.51172414 -207.64441902 507.54085017 -205.26140594 507.53066635 C-204.60401428 507.5292514 -203.94662262 507.52783646 -203.26931 507.52637863 C-201.19110613 507.52082772 -199.11301417 507.50828475 -197.03484344 507.4955101 C-195.61687626 507.49048874 -194.19890737 507.48592695 -192.78093719 507.48183823 C-189.32387023 507.47087447 -185.86686778 507.45364431 -182.40984344 507.4330101 C-181.93675751 508.36500229 -181.46367157 509.29699448 -180.97624969 510.25722885 C-174.7452667 522.34721968 -167.75685157 533.20140945 -158.42937469 543.1986351 C-155.79622059 546.11191199 -153.60235053 549.17961249 -151.40984344 552.4330101 C-152.43722626 552.65215073 -153.46460907 552.87129135 -154.52312469 553.0970726 C-167.53736 556.01204713 -178.56747714 559.91974893 -186.40984344 571.4330101 C-188.09786637 574.6830841 -189.32879979 577.93820758 -190.40984344 581.4330101 C-190.80171844 582.6705101 -191.19359344 583.9080101 -191.59734344 585.1830101 C-192.2078156 587.6794938 -192.40842409 589.78926939 -192.39812469 592.37441635 C-192.43376328 602.62644816 -196.04272141 609.16208313 -200.95281219 617.9564476 C-207.06008969 628.90695415 -209.73124422 640.28842667 -206.57390594 652.72597885 C-205.19295499 656.65597838 -203.72419604 659.96148121 -201.40984344 663.4330101 C-201.85972626 663.77590073 -202.30960907 664.11879135 -202.77312469 664.4720726 C-234.50999295 690.29405359 -248.31607871 735.86577307 -259.51531219 773.50234604 C-260.42954737 776.49756413 -261.40732233 779.46629839 -262.40984344 782.4330101 C-267.43232846 779.39308496 -271.59733497 775.66551786 -275.92156219 771.7064476 C-277.95367076 769.84979582 -280.00913701 768.03800103 -282.09734344 766.2455101 C-294.54121009 755.3886143 -306.96224324 744.01254115 -317.68328094 731.43691635 C-319.6272539 729.18067625 -321.64307862 726.99937117 -323.65984344 724.8080101 C-329.24637468 718.60705496 -334.33481206 712.05276485 -339.40984344 705.4330101 C-339.89356415 704.80620346 -340.37728485 704.17939682 -340.87566376 703.53359604 C-400.54008096 626.06830981 -431.96169301 530.1717994 -431.78484344 432.6205101 C-431.78429962 431.47580246 -431.7837558 430.33109482 -431.7831955 429.15169907 C-431.73954568 409.01307116 -430.61208857 389.31719684 -427.40984344 369.4330101 C-427.30329437 368.76753159 -427.1967453 368.10205307 -427.08696747 367.41640854 C-420.49509227 326.74638676 -408.34158819 286.97024606 -391.40984344 249.4330101 C-390.84233368 248.15562973 -390.84233368 248.15562973 -390.26335907 246.8524437 C-372.74289631 207.57295021 -347.45342406 171.5526782 -318.57390594 139.8158226 C-317.1405768 138.2376082 -315.71847565 136.64911725 -314.30828094 135.0501976 C-305.62738908 125.23289807 -296.42455916 115.89186819 -286.40984344 107.4330101 C-285.41984344 106.56547104 -284.42984344 105.69793198 -283.40984344 104.80410385 C-229.54390125 57.70472761 -164.20170133 25.02138889 -94.40984344 9.4330101 C-93.43531219 9.21161362 -92.46078094 8.99021713 -91.45671844 8.76211166 C-61.17408132 2.01391929 -30.93431139 0.05439365 0 0 Z " fill="#FEFEFE" transform="translate(510.4098434448242,74.56698989868164)"/>
<path d="M0 0 C0.99 0.495 0.99 0.495 2 1 C-3.75347472 17.43849919 -11.88700208 28.75854234 -24 41 C-23.67 41.99 -23.34 42.98 -23 44 C2.85453929 44.85443398 25.32444883 38.17079089 45 21 C46.92173453 19.12089174 48.79623752 17.21943651 50.625 15.25 C52 14 52 14 54 14 C54.1959375 14.72703125 54.391875 15.4540625 54.59375 16.203125 C58.40478771 29.0160966 65.86861691 38.452798 75 48 C75.57363281 48.63679688 76.14726563 49.27359375 76.73828125 49.9296875 C82.02382516 55.60628598 89.20160757 61.5754693 97 63 C98.06684502 59.20677326 97.83503983 56.13991447 97.2578125 52.26953125 C96.79449849 48.19096394 96.92441064 44.09862311 97 40 C100.58051221 44.35888443 103.8459167 48.91429771 107.125 53.5 C114.12895044 63.23276229 121.29409621 72.77763631 128.97241211 81.9909668 C136.50648905 91.03579121 143.68290214 100.28285889 150.49462891 109.88574219 C151.42053589 111.18615647 152.35573953 112.48008214 153.30615234 113.76269531 C163.70083939 127.82685816 165.07921713 145.68387856 167.75 162.5 C167.85718353 163.17382721 167.96436707 163.84765442 168.07479858 164.54190063 C176.48464889 218.06587855 172.6623484 283.92901159 141.83203125 330.2578125 C117.30433049 363.70094218 80.12946975 385.208925 41 397 C39.83839355 397.36134033 39.83839355 397.36134033 38.65332031 397.72998047 C26.91819563 401.36660728 15.19159715 403.5411531 3 405 C1.90816406 405.13277344 0.81632813 405.26554687 -0.30859375 405.40234375 C-52.60350564 410.4721028 -111.58678071 395.75844491 -153.015625 362.53125 C-158.15939102 358.16847464 -163.11825595 353.65312243 -168 349 C-168.85335937 348.21109375 -169.70671875 347.4221875 -170.5859375 346.609375 C-203.10535284 315.62873326 -213.4989415 264.33544107 -215.1081543 221.09375 C-215.56359764 198.1022266 -214.36794614 175.14543198 -211.125 152.375 C-210.97579102 151.30378906 -210.82658203 150.23257813 -210.67285156 149.12890625 C-205.73855904 117.04086899 -185.6303475 87.25650073 -165 63 C-164.20335937 62.01902344 -163.40671875 61.03804688 -162.5859375 60.02734375 C-153.33858899 48.76746801 -142.85526392 38.67026049 -132.48852539 28.45678711 C-129.9815806 25.98181551 -127.48849541 23.49350861 -125 21 C-126.73299754 26.77375561 -129.48217653 31.65565047 -132.44140625 36.87890625 C-133.84444745 39.68850505 -134.58023464 41.91213703 -135 45 C-114.19327222 42.71841119 -96.17281628 32.86360926 -80 20 C-77.68505696 18.30527207 -75.34539724 16.65243896 -73 15 C-75.95907224 23.20208859 -81.97547386 29.26232174 -88.30078125 35.078125 C-90.22450969 37.2539282 -91.07154168 39.2664679 -92 42 C-59.54829464 39.07366856 -23.24768283 23.24768283 0 0 Z " fill="#FEDEBF" transform="translate(533,267)"/>
<path d="M0 0 C1.14411346 0.00273422 1.14411346 0.00273422 2.31134033 0.00552368 C15.04893051 0.05653253 27.41714493 0.82117984 39.9375 3.3125 C40.79375977 3.47878906 41.65001953 3.64507812 42.53222656 3.81640625 C63.87382698 8.09264529 83.97452148 15.97080101 103.2265625 26.03125 C106.07274554 27.37642008 107.83402759 27.5863358 110.9375 27.3125 C111.4321164 19.76959983 109.84367391 14.253585 106.9375 7.3125 C116.0536699 8.62654251 123.41065755 15.01778906 129.14453125 21.8984375 C136.9375 32.39093137 136.9375 32.39093137 136.9375 36.3125 C137.59669434 36.17102539 138.25588867 36.02955078 138.93505859 35.88378906 C145.88116795 34.49334536 152.48892797 34.00576012 159.5625 34.0625 C160.53445313 34.05476563 161.50640625 34.04703125 162.5078125 34.0390625 C172.09124685 34.06482442 179.53563471 35.72966439 187.9375 40.3125 C187.9375 40.6425 187.9375 40.9725 187.9375 41.3125 C186.46990234 41.36857422 186.46990234 41.36857422 184.97265625 41.42578125 C177.48908033 41.80106382 170.95103877 42.48247558 163.9375 45.3125 C164.2675 46.3025 164.5975 47.2925 164.9375 48.3125 C167.19365045 49.09787132 167.19365045 49.09787132 170 49.5625 C192.46131491 54.70488882 212.4822459 68.70704775 228.9375 84.3125 C229.83339844 85.15554687 230.72929688 85.99859375 231.65234375 86.8671875 C265.01287642 119.15157396 289.04875928 169.84947838 290.9375 216.3125 C288.35510346 215.02130173 288.07385468 213.821223 286.8125 211.25 C284.0237461 206.02422693 280.28734033 202.27376899 275.9375 198.3125 C275.916875 199.488125 275.89625 200.66375 275.875 201.875 C275.85759766 202.86693359 275.85759766 202.86693359 275.83984375 203.87890625 C275.89249281 206.41739026 275.89249281 206.41739026 276.42578125 209.30859375 C281.0797461 240.39176488 272.50245931 272.44499442 264.9375 302.3125 C264.0196875 302.34988281 263.101875 302.38726562 262.15625 302.42578125 C253.18846689 302.9061982 245.36800926 303.36444533 238.37890625 309.66796875 C233.66040858 315.05140376 230.52737022 321.69394276 227.9375 328.3125 C227.6075 328.3125 227.2775 328.3125 226.9375 328.3125 C226.90011719 327.04019531 226.86273437 325.76789063 226.82421875 324.45703125 C226.36870223 311.57295014 224.98726584 299.03651814 222.9375 286.3125 C225.40028801 288.77528801 225.93521255 291.01926982 226.9375 294.3125 C227.5975 294.3125 228.2575 294.3125 228.9375 294.3125 C221.40954939 261.99298127 206.23624942 237.25955577 184.63671875 212.4375 C181.67560014 209.02866273 178.84524723 205.52706843 176.05078125 201.98046875 C174.43977391 199.94660921 172.81258935 197.93216273 171.16796875 195.92578125 C159.58655515 181.73869089 148.66548815 166.53114177 139.80859375 150.47265625 C138.29509794 147.26555274 138.29509794 147.26555274 135.9375 146.3125 C135.9375 158.5225 135.9375 170.7325 135.9375 183.3125 C118.73699233 168.56920771 109.81459554 152.34145195 105.9375 130.3125 C105.39222656 131.00214844 104.84695313 131.69179688 104.28515625 132.40234375 C89.18088699 151.22458698 71.28928175 165.01512675 46.9375 169.3125 C45.6175 169.3125 44.2975 169.3125 42.9375 169.3125 C44.02245875 166.31732132 45.31286146 163.5667198 46.890625 160.80859375 C55.25663518 146.12107075 62.24049953 128.49257342 61.9375 111.3125 C61.2775 110.9825 60.6175 110.6525 59.9375 110.3125 C59.9375 110.9725 59.9375 111.6325 59.9375 112.3125 C58.64453125 113.6171875 58.64453125 113.6171875 56.75 115.1875 C53.6141759 117.83164436 50.6314668 120.57120178 47.69238281 123.43212891 C29.50162303 140.90319196 0.52482172 161.03511157 -25.0625 164.3125 C-24.54300781 163.38050781 -24.02351562 162.44851563 -23.48828125 161.48828125 C-17.43474959 150.48001024 -12.91469035 139.27456478 -9.0625 127.3125 C-13.0881325 129.52151134 -16.13698954 132.1321762 -19.4375 135.3125 C-29.34744415 144.56846496 -40.13563179 151.98411357 -51.875 158.75 C-52.73407959 159.2462085 -53.59315918 159.74241699 -54.47827148 160.25366211 C-60.07818323 163.40465481 -65.85999429 166.53020516 -72.0625 168.3125 C-72.7225 167.9825 -73.3825 167.6525 -74.0625 167.3125 C-73.77117187 166.79945313 -73.47984375 166.28640625 -73.1796875 165.7578125 C-70.13955345 160.07907154 -67.8671059 154.276195 -65.8125 148.1875 C-65.55452637 147.4361377 -65.29655273 146.68477539 -65.03076172 145.91064453 C-63.42605823 141.03247405 -62.5494829 136.42582043 -62.0625 131.3125 C-63.29613281 132.45525391 -63.29613281 132.45525391 -64.5546875 133.62109375 C-83.08873872 150.77388099 -83.08873872 150.77388099 -90.25 156.4375 C-100.4657033 164.72598551 -109.77218888 174.26009521 -117.90234375 184.59375 C-119.86834108 187.06813362 -121.90950714 189.45684423 -123.98706055 191.83764648 C-153.60985123 225.98331885 -174.70718396 268.7250696 -176.625 314.3125 C-176.68977539 315.76076172 -176.68977539 315.76076172 -176.75585938 317.23828125 C-176.86091713 319.59624425 -176.96306914 321.95429416 -177.0625 324.3125 C-178.05254668 322.35075499 -179.0233891 320.40406769 -179.88671875 318.3828125 C-182.83503789 311.73908882 -186.9370295 308.16226826 -193.125 304.5 C-201.55939995 301.2823621 -211.30121911 302.15229628 -220.0625 303.3125 C-227.35066706 270.16608078 -227.35066706 270.16608078 -228.0625 255.3125 C-228.10632813 254.41273438 -228.15015625 253.51296875 -228.1953125 252.5859375 C-229.23803657 226.79589551 -225.16746791 201.30895193 -219.0625 176.3125 C-221.43863169 177.72729597 -223.81341658 179.14427414 -226.1875 180.5625 C-226.85265625 180.95824219 -227.5178125 181.35398437 -228.203125 181.76171875 C-232.23512795 184.17301463 -236.17589553 186.67299914 -240.0625 189.3125 C-234.27957506 156.34895428 -215.67923258 123.25333385 -195.0625 97.3125 C-194.35867188 96.41660156 -193.65484375 95.52070313 -192.9296875 94.59765625 C-185.44908966 85.25361199 -177.50407836 75.83966747 -168.27734375 68.16015625 C-166.53104723 66.7033692 -164.82252023 65.20130641 -163.12890625 63.68359375 C-145.61033773 48.05548082 -125.39217979 35.42330922 -104.22412109 25.34375 C-102.75477281 24.64276433 -101.28905107 23.93413669 -99.82666016 23.21875 C-69.02212858 8.19787365 -34.29486895 -0.17128195 0 0 Z " fill="#232222" transform="translate(485.0625,132.6875)"/>
<path d="M0 0 C0.72058594 0.09958008 1.44117188 0.19916016 2.18359375 0.30175781 C12.13604518 1.76772701 20.83945664 4.21722227 27.1015625 12.6328125 C30.86674575 19.14305547 31.93111513 25.2865317 32.75 32.625 C33.88798485 42.7804344 37.10818141 49.69677977 42.375 58.3125 C43.54519239 60.54992794 44.69304744 62.79925896 45.8125 65.0625 C46.28558594 66.00609375 46.75867188 66.9496875 47.24609375 67.921875 C49.43061152 72.54791262 49.59103789 76.66110846 49.625 81.6875 C49.645625 82.44289063 49.66625 83.19828125 49.6875 83.9765625 C49.7199641 88.61892831 49.2790642 91.47607835 46.375 95.3125 C45.36324707 94.98894531 44.35149414 94.66539062 43.30908203 94.33203125 C31.909321 91.09651452 19.77905448 93.80824558 8.5 96.3125 C7.0186325 96.63038145 5.53710175 96.94750295 4.05541992 97.26391602 C-10.88733108 100.48464502 -25.74561204 104.06646157 -40.56866455 107.7956543 C-42.65838832 108.32089192 -44.74881025 108.84327676 -46.83935547 109.36523438 C-50.3168955 110.23468846 -53.79233101 111.11213388 -57.26626587 111.99588013 C-59.16471613 112.47832709 -61.06414804 112.95690626 -62.96362305 113.43530273 C-70.42524651 115.35560719 -77.64042772 117.61791493 -84.87255859 120.25512695 C-88.00209613 121.13697647 -90.65097571 121.5864351 -93.85952759 121.87858582 C-94.75379267 121.96185718 -95.64805775 122.04512854 -96.56942177 122.13092327 C-97.24776258 122.19084359 -97.9261034 122.25076391 -98.625 122.3125 C-98.63530746 123.57117386 -98.64561493 124.82984772 -98.65623474 126.12666321 C-98.75387233 137.97227509 -98.85659722 149.81783332 -98.96433926 161.66335773 C-99.01956967 167.75366197 -99.07298993 173.84397101 -99.12231445 179.93432617 C-99.16995615 185.80875588 -99.22229901 191.68312639 -99.27794075 197.55748558 C-99.29836516 199.80181599 -99.3170781 202.04616263 -99.33407402 204.29052162 C-99.358116 207.42722075 -99.38817103 210.56380769 -99.41967773 213.70043945 C-99.4254332 214.63407822 -99.43118866 215.56771698 -99.43711853 216.52964783 C-99.44690735 217.38360138 -99.45669617 218.23755493 -99.46678162 219.11738586 C-99.47323417 219.85942922 -99.47968672 220.60147257 -99.4863348 221.36600208 C-99.625 223.3125 -99.625 223.3125 -100.625 226.3125 C-102.935 226.3125 -105.245 226.3125 -107.625 226.3125 C-109.32130325 222.9198935 -108.79681494 219.05424806 -108.81445312 215.32055664 C-108.82274643 214.38874069 -108.83103973 213.45692474 -108.83958435 212.49687195 C-108.85700808 210.46924111 -108.8721685 208.44158987 -108.88536072 206.41392708 C-108.90634713 203.20781763 -108.93337354 200.00181051 -108.96203613 196.79576111 C-109.02179984 189.98887983 -109.07392065 183.18195125 -109.125 176.375 C-109.18418083 168.49286173 -109.24645379 160.61077385 -109.31687927 152.72872734 C-109.34349802 149.56510398 -109.36428695 146.40147569 -109.3848877 143.23780823 C-109.4014888 141.30314898 -109.41836048 139.36849203 -109.43554688 137.43383789 C-109.43973129 136.55009491 -109.44391571 135.66635193 -109.44822693 134.75582886 C-109.48316693 131.36808244 -109.54647538 128.54807386 -110.625 125.3125 C-112.4011553 125.87942224 -114.17081206 126.46672975 -115.9375 127.0625 C-116.92363281 127.38734375 -117.90976562 127.7121875 -118.92578125 128.046875 C-121.8401479 129.41337977 -122.95901201 130.60598026 -124.625 133.3125 C-121.655 133.3125 -118.685 133.3125 -115.625 133.3125 C-115.61620064 134.95835083 -115.61620064 134.95835083 -115.60722351 136.63745117 C-115.54992492 146.99526776 -115.47712593 157.35287584 -115.38928509 167.71047974 C-115.34462342 173.03499834 -115.30535793 178.35944116 -115.27856445 183.68408203 C-115.2524897 188.82597371 -115.21205754 193.96757314 -115.16181374 199.10928345 C-115.14517327 201.06755936 -115.13364147 203.02588579 -115.12738609 204.98422241 C-115.11771434 207.7345824 -115.08961841 210.48419944 -115.05737305 213.234375 C-115.05952568 214.43955528 -115.05952568 214.43955528 -115.0617218 215.66908264 C-114.9603175 221.81454961 -114.10118991 227.90913921 -109.5 232.375 C-105.46658146 233.69024518 -101.63591639 233.804934 -97.625 232.3125 C-94.47683489 229.39650579 -93.36337758 227.14080485 -93.10601807 222.95280457 C-93.07677933 221.18774988 -93.06931915 219.42225217 -93.07910156 217.65698242 C-93.06876389 216.6906488 -93.05842621 215.72431519 -93.04777527 214.72869873 C-93.01832923 211.54161901 -93.01684768 208.35517386 -93.015625 205.16796875 C-93.00064462 202.95549812 -92.98391777 200.74303868 -92.96551514 198.53059387 C-92.92181379 192.71257007 -92.9018362 186.89469714 -92.88677979 181.07653809 C-92.86721888 175.13752308 -92.82524767 169.19867124 -92.78515625 163.25976562 C-92.70982382 151.61072737 -92.65955058 139.96172559 -92.625 128.3125 C-91.7311014 128.15338733 -91.7311014 128.15338733 -90.81914425 127.99106026 C-79.55706672 125.98067923 -68.32293224 123.94051239 -57.16015625 121.4296875 C-56.00828323 121.17355179 -54.85641022 120.91741608 -53.66963196 120.65351868 C-50.00773005 119.83673134 -46.34754118 119.01258155 -42.6875 118.1875 C-41.42939514 117.90580963 -40.17129028 117.62411926 -38.87506104 117.33389282 C-20.9063248 113.30706492 -3.01815022 109.04987092 14.74975586 104.20849609 C15.48934036 104.01055954 16.22892487 103.81262299 16.99092102 103.60868835 C18.93180622 103.08846888 20.86962952 102.55686098 22.80712891 102.02416992 C27.49676331 101.08874606 32.25124148 100.43048302 36.7734375 102.30859375 C39.00938789 103.93915836 41.21298164 105.58433148 43.375 107.3125 C44.14585937 107.90804687 44.91671875 108.50359375 45.7109375 109.1171875 C53.83590604 115.87484741 63.99110005 126.16080016 67.375 136.3125 C66.3129933 138.73302809 65.18959393 140.99284012 63.9375 143.3125 C56.90968549 156.88510181 51.40832016 171.00525843 46.0625 185.3125 C45.43142334 186.99436401 45.43142334 186.99436401 44.78759766 188.71020508 C42.28355444 195.49933633 40.14421097 202.29542081 38.375 209.3125 C38.045 209.3125 37.715 209.3125 37.375 209.3125 C37.21680786 207.73505005 37.21680786 207.73505005 37.05541992 206.12573242 C34.827228 182.85455649 34.827228 182.85455649 31.75 159.6875 C31.63938232 158.96328857 31.52876465 158.23907715 31.41479492 157.49291992 C30.84495742 154.08024052 29.99077365 151.3549762 28.375 148.3125 C27.23013621 158.79017744 27.17901789 169.22488136 27.1875 179.75 C27.1867749 180.67391541 27.1860498 181.59783081 27.18530273 182.54974365 C27.18673036 199.27326731 27.8256804 215.93522956 28.65893555 232.63525391 C29.33010017 246.20893479 29.62089707 259.71985615 29.375 273.3125 C-11.54055888 294.97745172 -59.12140718 304.28957739 -104.625 310.3125 C-105.8494281 310.48467545 -107.0738562 310.65685089 -108.33538818 310.83424377 C-112.43483979 311.34343381 -116.49759494 311.44145871 -120.625 311.41015625 C-121.3461499 311.4087413 -122.0672998 311.40732635 -122.81030273 311.40586853 C-125.08191324 311.40033381 -127.35342 311.38779423 -129.625 311.375 C-131.17838398 311.36997654 -132.73176952 311.36541512 -134.28515625 311.36132812 C-138.06514328 311.35038589 -141.84505414 311.3331676 -145.625 311.3125 C-145.81197683 294.98791919 -145.95300036 278.66368626 -146.03949738 262.33829308 C-146.08072927 254.7578792 -146.13692929 247.17813105 -146.22851562 239.59814453 C-146.30831552 232.99048625 -146.35987983 226.38331009 -146.37770796 219.77518332 C-146.3881283 216.27670385 -146.41256856 212.77960347 -146.47084045 209.28156662 C-146.53540274 205.37413671 -146.53691533 201.46804927 -146.53320312 197.56005859 C-146.56196533 196.40343719 -146.59072754 195.2468158 -146.62036133 194.05514526 C-146.5406912 186.31488549 -146.5406912 186.31488549 -143.81220341 183.32807446 C-141.62025452 181.72962952 -141.62025452 181.72962952 -139.42434788 180.47973728 C-137.2981686 179.38074192 -137.2981686 179.38074192 -136.79272461 176.39086914 C-136.87014893 175.38660889 -136.94757324 174.38234863 -137.02734375 173.34765625 C-137.09332764 172.22464111 -137.15931152 171.10162598 -137.22729492 169.94458008 C-137.3379126 168.76661865 -137.44853027 167.58865723 -137.5625 166.375 C-137.64153564 165.16674561 -137.72057129 163.95849121 -137.80200195 162.71362305 C-138.03583945 159.2419638 -138.32095381 155.77862662 -138.625 152.3125 C-138.86246332 149.4171903 -139.08969223 146.52150096 -139.3125 143.625 C-139.41949219 142.56925781 -139.52648437 141.51351562 -139.63671875 140.42578125 C-139.61247426 133.9848297 -138.39320107 129.36686481 -133.74584961 124.64941406 C-133.21096924 124.14635742 -132.67608887 123.64330078 -132.125 123.125 C-131.26177124 122.29500488 -131.26177124 122.29500488 -130.38110352 121.44824219 C-110.52286585 102.8848215 -85.17352039 90.01106311 -61.73046875 76.56176758 C-24.70914028 57.50931697 -24.70914028 57.50931697 3.75 28.875 C5.02251456 23.65769031 5.10215285 19.88799783 2.875 15.0625 C-1.08629116 10.70507973 -5.18491791 8.53432564 -11.0625 8 C-13.554738 8.03680192 -13.554738 8.03680192 -14.625 9.3125 C-14.08230469 9.69921875 -13.53960938 10.0859375 -12.98046875 10.484375 C-11.90732422 11.26554688 -11.90732422 11.26554688 -10.8125 12.0625 C-9.75095703 12.82820312 -9.75095703 12.82820312 -8.66796875 13.609375 C-6.55415155 15.37156295 -5.06903455 16.97106858 -3.625 19.3125 C-3.625 25.13003402 -5.66842206 28.31001632 -9.625 32.3125 C-12.1251039 34.44483654 -14.75499494 36.3543432 -17.4375 38.25 C-18.21593262 38.80502197 -18.99436523 39.36004395 -19.79638672 39.93188477 C-34.35224892 50.16767639 -49.6943968 59.25528189 -65 68.3125 C-66.03463379 68.9305249 -67.06926758 69.5485498 -68.13525391 70.18530273 C-69.08835449 70.74290283 -70.04145508 71.30050293 -71.0234375 71.875 C-72.28679932 72.61943359 -72.28679932 72.61943359 -73.57568359 73.37890625 C-74.25195801 73.68699219 -74.92823242 73.99507812 -75.625 74.3125 C-76.285 73.9825 -76.945 73.6525 -77.625 73.3125 C-77.22410156 72.93480469 -76.82320312 72.55710937 -76.41015625 72.16796875 C-70.99732056 66.92696911 -66.29776963 61.21414736 -61.625 55.3125 C-61.191875 54.7669043 -60.75875 54.22130859 -60.3125 53.65917969 C-58.97236317 51.96550386 -57.6408966 50.26539533 -56.3125 48.5625 C-55.51199219 47.53640625 -54.71148438 46.5103125 -53.88671875 45.453125 C-51.52025644 42.16705299 -49.5717816 38.85858273 -47.625 35.3125 C-52.01633106 38.1691904 -56.1848824 41.21384501 -60.3125 44.4375 C-63.36694478 46.81587584 -66.40127329 49.16334886 -69.625 51.3125 C-72.58773648 50.93021142 -75.06504398 49.8256523 -77.625 48.3125 C-78.92578125 46.54296875 -78.92578125 46.54296875 -79.9375 44.5 C-80.45763672 43.50033203 -80.45763672 43.50033203 -80.98828125 42.48046875 C-81.78179439 39.77862952 -81.2438582 38.02332842 -80.625 35.3125 C-79.89087891 35.08175781 -79.15675781 34.85101562 -78.40039062 34.61328125 C-64.21425126 30.11848694 -50.66103729 25.51505941 -37.625 18.3125 C-36.51640625 17.75046875 -35.4078125 17.1884375 -34.265625 16.609375 C-25.78098615 12.26556468 -18.27189152 6.9497637 -10.625 1.3125 C-6.81301007 -1.22882662 -4.30533677 -0.61815156 0 0 Z " fill="#4E4F4F" transform="translate(661.625,636.6875)"/>
<path d="M0 0 C0.82757813 0.66128906 1.65515625 1.32257812 2.5078125 2.00390625 C20.04241308 15.25950616 40.5284755 25.4518245 61.6328125 31.56640625 C62.66664063 31.88222656 63.70046875 32.19804688 64.765625 32.5234375 C67.0504981 33.22035562 69.33823406 33.90232826 71.6328125 34.56640625 C71.96045553 38.66194407 71.86350919 41.10501288 70.0078125 44.81640625 C67.36366549 47.87805016 65.44637947 49.243332 61.6328125 50.56640625 C57.85374362 50.17149957 55.69498402 49.17318305 52.8203125 46.73046875 C51.79550781 45.87582031 51.79550781 45.87582031 50.75 45.00390625 C50.05132812 44.40578125 49.35265625 43.80765625 48.6328125 43.19140625 C42.45993862 37.92527576 42.45993862 37.92527576 35.6328125 33.56640625 C37.95491594 40.68752347 42.57443915 45.18279062 47.6328125 50.56640625 C48.70109248 51.81147015 49.76398913 53.06118229 50.8203125 54.31640625 C56.38975242 60.73452273 62.59023094 66.59925219 68.6328125 72.56640625 C67.6428125 73.06140625 67.6428125 73.06140625 66.6328125 73.56640625 C63.76031291 72.19586723 61.0262081 70.75276844 58.2578125 69.19140625 C56.95529541 68.46449585 56.95529541 68.46449585 55.62646484 67.72290039 C1.85891685 37.40556278 1.85891685 37.40556278 -7.3671875 23.56640625 C-7.765625 20.65234375 -7.765625 20.65234375 -7.3671875 17.56640625 C-5.46875 15.23046875 -5.46875 15.23046875 -2.9921875 13.19140625 C-2.18007813 12.50304687 -1.36796875 11.8146875 -0.53125 11.10546875 C1.6328125 9.56640625 1.6328125 9.56640625 3.6328125 9.56640625 C3.6328125 8.24640625 3.6328125 6.92640625 3.6328125 5.56640625 C-6.67872924 7.92681669 -6.67872924 7.92681669 -14.3671875 14.56640625 C-16.03961863 19.58369963 -16.02399549 23.89154588 -14.1171875 28.75390625 C-10.5074033 34.55534514 -6.31815469 38.48283675 -0.9296875 42.56640625 C-0.185979 43.13109619 0.55772949 43.69578613 1.32397461 44.27758789 C17.74458667 56.51544721 35.94263459 66.31594975 53.6328125 76.56640625 C122.76227041 116.64059593 122.76227041 116.64059593 127.47265625 132.37109375 C128.37311875 136.8086671 128.87283892 140.19234046 127.6328125 144.56640625 C126.62275439 152.53464248 126.45886366 160.60603613 126.3203125 168.62890625 C126.27571899 170.00357056 126.27571899 170.00357056 126.23022461 171.40600586 C126.1286704 176.61144323 126.1286704 176.61144323 128.46484375 181.125 C130.66007098 182.7209995 130.66007098 182.7209995 133.6328125 183.56640625 C133.6328125 225.47640625 133.6328125 267.38640625 133.6328125 310.56640625 C115.83968169 310.56640625 99.89343057 310.38401357 82.6328125 307.56640625 C80.38283462 307.22251153 78.13283361 306.87876807 75.8828125 306.53515625 C36.93451441 300.39134265 -7.40794609 290.48759004 -41.3671875 269.56640625 C-40.6465932 244.09954931 -40.6465932 244.09954931 -39.85546875 232.8984375 C-38.59258946 214.98238998 -38.17358456 197.15487393 -38.1796875 179.19140625 C-38.17887177 178.05653778 -38.17805603 176.92166931 -38.17721558 175.75241089 C-38.17748292 172.4742011 -38.18636431 169.1961514 -38.19921875 165.91796875 C-38.20041718 164.95038132 -38.2016156 163.98279388 -38.20285034 162.98588562 C-38.24909141 156.14120865 -38.71574606 149.3791508 -39.3671875 142.56640625 C-40.0271875 142.56640625 -40.6871875 142.56640625 -41.3671875 142.56640625 C-42.8561823 151.66761379 -44.01829074 160.76495665 -44.9296875 169.94140625 C-45.12365112 171.87814209 -45.12365112 171.87814209 -45.3215332 173.85400391 C-46.43479712 185.41399962 -47.03655823 196.96017867 -47.3671875 208.56640625 C-49.0852843 205.98926104 -49.81157411 204.4916533 -50.63671875 201.62109375 C-50.87898193 200.80793701 -51.12124512 199.99478027 -51.37084961 199.15698242 C-51.63776611 198.26084229 -51.90468262 197.36470215 -52.1796875 196.44140625 C-58.80130702 174.96909247 -67.23221955 153.62200749 -77.3671875 133.56640625 C-70.75563023 123.80997107 -63.71386347 114.90145732 -55.3671875 106.56640625 C-54.66851562 105.85871094 -53.96984375 105.15101563 -53.25 104.421875 C-48.61129529 100.31248307 -44.76829192 100.14911115 -38.72363281 100.27416992 C-32.84886876 100.78566924 -27.3834054 102.47481993 -21.7421875 104.12890625 C-4.47735159 108.99128884 12.98666522 112.97514255 30.47429657 116.93751144 C32.67646962 117.43713126 34.87812938 117.93895444 37.07965088 118.44143677 C40.6232526 119.2498677 44.16793375 120.0533892 47.71351814 120.85307884 C49.64709397 121.28976411 51.5799649 121.72956698 53.51280212 122.16950989 C62.84136147 124.25879543 72.21031758 125.9687264 81.6328125 127.56640625 C81.6482737 129.39137886 81.6482737 129.39137886 81.66404724 131.2532196 C81.76177781 142.71558918 81.86451166 154.17790443 81.97215176 165.64018536 C82.0273303 171.53313529 82.08074226 177.42609023 82.13012695 183.3190918 C82.17784517 189.00549938 82.23019076 194.69184721 82.28575325 200.37818336 C82.30614299 202.5482923 82.32486162 204.71841759 82.34188652 206.88855553 C82.36600532 209.92665903 82.39604976 212.96465022 82.42749023 216.00268555 C82.4332457 216.90108154 82.43900116 217.79947754 82.44493103 218.72509766 C82.46129146 224.71917829 82.46129146 224.71917829 83.6328125 230.56640625 C88.30218615 233.53782584 93.69706282 232.79817596 99.0078125 232.37890625 C100.82322786 231.66411403 100.82322786 231.66411403 101.71444702 229.59040833 C102.96352339 225.47743846 102.94093031 221.64650439 102.95166016 217.36987305 C102.96170578 216.45230728 102.9717514 215.53474152 102.98210144 214.58937073 C103.01292448 211.56479503 103.02996624 208.54030782 103.046875 205.515625 C103.06558734 203.4152602 103.0851608 201.31490292 103.1055603 199.21455383 C103.15688043 193.69249907 103.1965069 188.17041994 103.23370361 182.64825439 C103.27374391 177.01088431 103.32483617 171.37361561 103.375 165.73632812 C103.47175794 154.67975872 103.55616325 143.62313206 103.6328125 132.56640625 C106.2728125 132.23640625 108.9128125 131.90640625 111.6328125 131.56640625 C111.6328125 130.90640625 111.6328125 130.24640625 111.6328125 129.56640625 C110.42724646 128.93608492 109.21818061 128.31245655 108.0078125 127.69140625 C107.33492187 127.34335937 106.66203125 126.9953125 105.96875 126.63671875 C103.25009005 125.39104513 100.47344525 124.49514007 97.6328125 123.56640625 C97.63725372 124.81477264 97.64169495 126.06313904 97.64627075 127.34933472 C97.68674729 139.0921848 97.71676339 150.83502081 97.73643684 162.57792473 C97.74689103 168.61561863 97.76107997 174.65325639 97.78369141 180.69091797 C97.80536159 186.51343465 97.8173688 192.3358972 97.82256699 198.15845108 C97.82627324 200.38409401 97.83351021 202.60973386 97.84427261 204.83535385 C97.85871013 207.9435246 97.8607937 211.0514693 97.85986328 214.15966797 C97.86705383 215.08755127 97.87424438 216.01543457 97.88165283 216.97143555 C97.8789035 217.81560028 97.87615417 218.65976501 97.87332153 219.5295105 C97.87516512 220.2651013 97.87700871 221.0006921 97.87890816 221.75857353 C97.6328125 223.56640625 97.6328125 223.56640625 95.6328125 225.56640625 C93.3228125 225.56640625 91.0128125 225.56640625 88.6328125 225.56640625 C88.3028125 191.24640625 87.9728125 156.92640625 87.6328125 121.56640625 C84.3328125 120.90640625 81.0328125 120.24640625 77.6328125 119.56640625 C75.71002432 119.0973341 73.79192907 118.60787331 71.8828125 118.0859375 C70.85929688 117.80814453 69.83578125 117.53035156 68.78125 117.24414062 C67.74226562 116.95861328 66.70328125 116.67308594 65.6328125 116.37890625 C62.4042344 115.49935298 59.17543759 114.6206212 55.94628906 113.74316406 C53.60210076 113.10545999 51.25933466 112.46311673 48.91784668 111.81555176 C33.14860399 107.45533001 17.32536322 103.5276782 1.35693359 99.96630859 C-2.18652371 99.17594082 -5.72812775 98.37764054 -9.26953125 97.578125 C-11.54677509 97.06596182 -13.82411512 96.5542261 -16.1015625 96.04296875 C-17.14834167 95.80760406 -18.19512085 95.57223938 -19.27362061 95.32974243 C-28.5294903 93.19529462 -28.5294903 93.19529462 -37.96875 92.43359375 C-38.78859375 92.43230469 -39.6084375 92.43101562 -40.453125 92.4296875 C-41.29101562 92.43355469 -42.12890625 92.43742188 -42.9921875 92.44140625 C-43.8378125 92.43753906 -44.6834375 92.43367187 -45.5546875 92.4296875 C-46.37195313 92.43097656 -47.18921875 92.43226563 -48.03125 92.43359375 C-49.13654053 92.43528564 -49.13654053 92.43528564 -50.26416016 92.43701172 C-52.40917756 92.5689898 -54.30401878 92.97967626 -56.3671875 93.56640625 C-60.74631344 86.31347892 -61.64885362 80.26175702 -59.77734375 71.9453125 C-57.90244086 66.13052151 -55.00221719 61.16063086 -51.8046875 56.00390625 C-46.69195812 47.74203196 -44.59252349 40.75670616 -43.4296875 31.06640625 C-42.25518008 21.59395613 -39.88437086 12.94215179 -32.3671875 6.56640625 C-25.05556328 1.53194829 -8.28789273 -5.01923537 0 0 Z " fill="#4E4F4F" transform="translate(371.3671875,637.43359375)"/>
<path d="M0 0 C1.88829064 -0.00322618 3.77658105 -0.00659118 5.66487122 -0.01008606 C9.61081519 -0.01603964 13.5567374 -0.01793013 17.50268555 -0.01733398 C21.49068781 -0.01725313 25.47857423 -0.02413628 29.46655273 -0.0378418 C67.47331211 -0.1661801 67.47331211 -0.1661801 84.0078125 0.9921875 C85.55579781 1.09621635 85.55579781 1.09621635 87.13505554 1.2023468 C102.75453404 2.50907689 102.75453404 2.50907689 107.9296875 7.84765625 C109.58268923 11.76144865 109.90016597 15.11501586 109.76953125 19.29296875 C109.75559326 20.04215576 109.74165527 20.79134277 109.72729492 21.56323242 C109.51381276 28.05879242 108.44230734 34.00732404 106.33203125 40.16796875 C105.99171875 41.163125 105.65140625 42.15828125 105.30078125 43.18359375 C97.86028119 62.79031687 82.16287926 75.95167276 63.51953125 84.48046875 C53.15828572 88.6809737 41.53839593 91.72256475 30.33203125 92.16796875 C29.13964844 92.23113281 27.94726562 92.29429687 26.71875 92.359375 C10.76418518 92.93950641 -5.16623806 89.92219948 -19.66796875 83.16796875 C-20.25884277 82.89500977 -20.8497168 82.62205078 -21.45849609 82.34082031 C-42.39008337 72.48745933 -56.95968458 56.76719141 -64.8359375 34.9296875 C-67.14210909 26.75522951 -68.59680171 17.47074996 -65.04296875 9.54296875 C-59.49104471 3.99104471 -53.12611657 3.40314831 -45.66796875 2.54296875 C-44.71535156 2.42179688 -43.76273437 2.300625 -42.78125 2.17578125 C-28.50351632 0.42204093 -14.36286627 0.00586077 0 0 Z " fill="#B1251B" transform="translate(489.66796875,533.83203125)"/>
<path d="M0 0 C11.77241482 6.30174201 17.76205168 17.02673089 21.73046875 29.46484375 C26.8811453 51.34917371 24.39714842 74.77503156 12.81835938 94.16601562 C2.91575276 109.38458783 -12.88054471 118.26308914 -30.375 122 C-36.41781806 122.94041753 -42.26667349 123.12348944 -48.375 123.0625 C-49.24511719 123.05798828 -50.11523438 123.05347656 -51.01171875 123.04882812 C-53.13284293 123.0371736 -55.2539311 123.01924357 -57.375 123 C-55.97098664 117.32330199 -54.56389404 111.65102611 -53.015625 106.01171875 C-48.66740837 89.63426673 -46.30037381 73.06964125 -44.08691406 56.29174805 C-37.87383186 10.54045883 -37.87383186 10.54045883 -23.375 -2 C-15.3899546 -4.6616818 -7.46839664 -3.71409496 0 0 Z " fill="#FDDEBF" transform="translate(757.375,449)"/>
<path d="M0 0 C10.14095293 5.70712822 14.33763369 24.11289178 17.24609375 34.50390625 C19.59725625 43.93385267 20.41522354 53.57252854 21.3918457 63.22021484 C23.51225168 84.10046251 27.89878133 104.22461717 33.8046875 124.35546875 C12.01796247 124.93768218 -7.49601058 123.53344359 -25.1953125 109.35546875 C-25.82050781 108.85660156 -26.44570313 108.35773438 -27.08984375 107.84375 C-35.59028407 100.22597391 -41.14069039 88.16762125 -44.1953125 77.35546875 C-44.37046387 76.74606445 -44.54561523 76.13666016 -44.72607422 75.50878906 C-49.84854813 55.61293587 -47.29432554 32.85379397 -37.03125 15.1640625 C-28.90919505 2.73904652 -14.84881728 -4.3595282 0 0 Z " fill="#FDDEBF" transform="translate(289.1953125,446.64453125)"/>
<path d="M0 0 C0.65782471 0.14099121 1.31564941 0.28198242 1.9934082 0.42724609 C33.92231556 7.20786978 66.68572413 10.4798558 99 4 C99.89428711 3.82355957 100.78857422 3.64711914 101.70996094 3.46533203 C107.15606549 2.37859618 112.58222043 1.21977437 118 0 C118.11214844 0.96099609 118.11214844 0.96099609 118.2265625 1.94140625 C119.21240879 8.42672839 120.90326177 12.7257183 126 17 C128.68479876 18.46425533 128.68479876 18.46425533 131 19 C125.01912849 32.46673966 106.24370826 47.03409541 93 52.9375 C70.68495859 61.2908819 46.13304936 61.58652032 24.04296875 52.4921875 C12.36257161 46.76444462 -6.54062883 33.11262804 -12.4375 21.0625 C-12.623125 20.381875 -12.80875 19.70125 -13 19 C-12.113125 18.505 -11.22625 18.01 -10.3125 17.5 C-4.07812154 13.32900921 -1.85731327 6.99869409 0 0 Z " fill="#E28348" transform="translate(453,676)"/>
<path d="M0 0 C1.88829064 -0.00322618 3.77658105 -0.00659118 5.66487122 -0.01008606 C9.61081519 -0.01603964 13.5567374 -0.01793013 17.50268555 -0.01733398 C21.49068781 -0.01725313 25.47857423 -0.02413628 29.46655273 -0.0378418 C67.47331211 -0.1661801 67.47331211 -0.1661801 84.0078125 0.9921875 C85.55579781 1.09621635 85.55579781 1.09621635 87.13505554 1.2023468 C102.75453404 2.50907689 102.75453404 2.50907689 107.9296875 7.84765625 C109.58268923 11.76144865 109.90016597 15.11501586 109.76953125 19.29296875 C109.75559326 20.04215576 109.74165527 20.79134277 109.72729492 21.56323242 C109.51381276 28.05879242 108.44230734 34.00732404 106.33203125 40.16796875 C105.99171875 41.163125 105.65140625 42.15828125 105.30078125 43.18359375 C97.86028119 62.79031687 82.16287926 75.95167276 63.51953125 84.48046875 C53.15828572 88.6809737 41.53839593 91.72256475 30.33203125 92.16796875 C29.13964844 92.23113281 27.94726562 92.29429687 26.71875 92.359375 C10.76418518 92.93950641 -5.16623806 89.92219948 -19.66796875 83.16796875 C-20.25884277 82.89500977 -20.8497168 82.62205078 -21.45849609 82.34082031 C-42.39008337 72.48745933 -56.95968458 56.76719141 -64.8359375 34.9296875 C-67.14210909 26.75522951 -68.59680171 17.47074996 -65.04296875 9.54296875 C-59.49104471 3.99104471 -53.12611657 3.40314831 -45.66796875 2.54296875 C-44.71535156 2.42179688 -43.76273437 2.300625 -42.78125 2.17578125 C-28.50351632 0.42204093 -14.36286627 0.00586077 0 0 Z M-55.66796875 15.16796875 C-55.68500239 16.93299053 -55.69717152 18.69805972 -55.70727539 20.46313477 C-55.71457169 21.44604996 -55.72186798 22.42896515 -55.72938538 23.44166565 C-55.45684838 35.53966774 -47.22125918 48.9292821 -38.66796875 57.16796875 C-25.57274912 69.09700926 -9.19448924 77.30241597 8.33203125 80.16796875 C9.01007813 80.27882813 9.688125 80.3896875 10.38671875 80.50390625 C32.17153162 83.45642668 55.21455409 78.91019441 73.33203125 66.16796875 C86.86684725 55.59323677 97.10741475 41.61025177 99.33203125 24.16796875 C99.46285047 21.47489724 99.43016619 18.86667972 99.33203125 16.16796875 C92.76340031 13.75533919 86.483138 13.46959778 79.54296875 13.0625 C78.85314281 13.02074961 78.16331688 12.97899921 77.45258713 12.93598366 C60.08678622 11.90493553 42.71552699 11.82791501 25.32421875 11.85229492 C21.74954659 11.85692964 18.17521449 11.84996554 14.60058594 11.83178711 C-8.99434193 11.71279434 -32.20663805 12.58939604 -55.66796875 15.16796875 Z " fill="#040201" transform="translate(489.66796875,533.83203125)"/>
<path d="M0 0 C3.25271151 3.77803881 5.58208689 7.72722666 7.75 12.1875 C8.09361572 12.89036133 8.43723145 13.59322266 8.79125977 14.31738281 C9.86977527 16.5407311 10.93489714 18.77020153 12 21 C12.3304834 21.67691895 12.6609668 22.35383789 13.00146484 23.05126953 C21.42249783 40.38473743 26.79794085 58.94619924 32.0625 77.4375 C32.26641357 78.14583984 32.47032715 78.85417969 32.68041992 79.58398438 C34.68524618 86.88476545 34.68524618 86.88476545 34 90 C31.94485031 91.79312599 30.11938446 93.1009295 27.8125 94.5 C27.14903564 94.92087891 26.48557129 95.34175781 25.80200195 95.77539062 C24.33575675 96.70098198 22.86399606 97.61787662 21.38769531 98.52734375 C18.89977668 100.06181463 16.42983848 101.62263722 13.9609375 103.1875 C0.32650508 111.78123923 -13.54594413 119.86199481 -28 127 C-29.0424521 120.18887651 -29.50715673 113.3840557 -29.92993164 106.51416016 C-30.06088793 104.40101281 -30.19910189 102.28842678 -30.33789062 100.17578125 C-30.51687228 97.41229072 -30.66705049 94.64932013 -30.79589844 91.88305664 C-30.9207112 89.50847885 -31.09444172 87.13504727 -31.35253906 84.77124023 C-32.10297028 74.75138682 -28.03598434 66.8351741 -23.8767395 57.97848511 C-21.75670542 53.46318517 -19.71466599 48.91257271 -17.66015625 44.3671875 C-17.25359299 43.47384201 -16.84702972 42.58049652 -16.42814636 41.66007996 C-13.03671497 34.17937032 -9.95539254 26.62476755 -7.0625 18.9375 C-6.68109863 17.92405518 -6.29969727 16.91061035 -5.90673828 15.86645508 C-4.92967748 13.2472204 -3.96374949 10.62415367 -3 8 C-2.00355174 5.33198717 -1.00172655 2.66603711 0 0 Z " fill="#4E4F50" transform="translate(731,777)"/>
<path d="M0 0 C1.91859098 2.87788647 3.01929961 5.39211906 4.25 8.609375 C4.68852295 9.74511963 5.1270459 10.88086426 5.57885742 12.05102539 C6.282323 13.88201782 6.282323 13.88201782 7 15.75 C11.6443095 27.73931136 16.63228181 39.5477839 21.82128906 51.31152344 C23.769682 55.75553815 25.67179942 60.21868889 27.5625 64.6875 C27.89725342 65.4719751 28.23200684 66.2564502 28.5769043 67.06469727 C28.88281494 67.78971436 29.18872559 68.51473145 29.50390625 69.26171875 C29.90331421 70.20470825 29.90331421 70.20470825 30.31079102 71.16674805 C31.81419564 75.1657085 32.06102225 78.23974377 31.6953125 82.515625 C31.56274048 84.13464722 31.56274048 84.13464722 31.42749023 85.78637695 C31.32766846 86.92937256 31.22784668 88.07236816 31.125 89.25 C30.93000539 91.60278322 30.73599337 93.95564809 30.54296875 96.30859375 C30.44806152 97.45312012 30.3531543 98.59764648 30.25537109 99.77685547 C29.82924784 105.1551339 29.53147371 110.53850647 29.24609375 115.92578125 C29.02439369 118.69527248 28.61436065 121.29376673 28 124 C22.23146207 122.36811098 17.22562158 119.61802843 12 116.75 C11.04246826 116.22567383 10.08493652 115.70134766 9.09838867 115.16113281 C-5.47936596 107.07017576 -19.78017189 98.18369534 -33 88 C-31.51212011 78.8867357 -28.77131609 70.15981493 -26 61.375 C-25.75734406 60.60365723 -25.51468811 59.83231445 -25.26467896 59.03759766 C-18.73123312 38.37660637 -10.50977532 18.96231802 0 0 Z " fill="#4E4F50" transform="translate(291,777)"/>
<path d="M0 0 C-13.0949541 16.3679627 -32.67057479 23.61239362 -53 26 C-77.59910193 27.26982159 -99.9791308 20.77911942 -119 5 C-119.74121094 4.47921875 -120.48242188 3.9584375 -121.24609375 3.421875 C-121.82488281 2.95265625 -122.40367187 2.4834375 -123 2 C-123 1.34 -123 0.68 -123 0 C-104.10626826 -10.47661902 -104.10626826 -10.47661902 -94 -13 C-92.82308594 -13.29648437 -91.64617187 -13.59296875 -90.43359375 -13.8984375 C-58.85413216 -20.98641285 -28.31746224 -14.12368476 0 0 Z " fill="#D95149" transform="translate(574,589)"/>
<path d="M0 0 C0.8971875 0.49628906 1.794375 0.99257813 2.71875 1.50390625 C16.62736082 9.11253486 30.78222791 15.48056885 46 20 C46.82242188 20.2475 47.64484375 20.495 48.4921875 20.75 C69.7711351 26.05132951 95.12664571 20.43621655 114 10 C117.51974306 7.87674674 120.94732229 5.64683928 124.328125 3.30859375 C127 2 127 2 129.1875 2.71484375 C129.785625 3.13894531 130.38375 3.56304688 131 4 C132.66140763 4.67966676 134.32700041 5.34938905 136 6 C130.01912849 19.46673966 111.24370826 34.03409541 98 39.9375 C75.68495859 48.2908819 51.13304936 48.58652032 29.04296875 39.4921875 C17.36257161 33.76444462 -1.54062883 20.11262804 -7.4375 8.0625 C-7.623125 7.381875 -7.80875 6.70125 -8 6 C-7.05125 5.38125 -6.1025 4.7625 -5.125 4.125 C-2.05554891 2.18029031 -2.05554891 2.18029031 0 0 Z " fill="#FDE0C1" transform="translate(448,689)"/>
<path d="M0 0 C2.26800936 1.36317121 4.31766902 2.74896142 6.4375 4.3125 C24.71392953 17.10253266 45.5529746 25.30313388 67 31 C67.17718517 36.75170337 66.84551567 39.54729764 63 44 C59.97756056 45.99352389 58.18720385 47.12406091 54.546875 46.74365234 C51.80243871 45.94231483 50.35288498 45.00406989 48.1875 43.1640625 C47.50429688 42.59429688 46.82109375 42.02453125 46.1171875 41.4375 C45.06917969 40.5403125 45.06917969 40.5403125 44 39.625 C37.82712612 34.35886951 37.82712612 34.35886951 31 30 C33.32210344 37.12111722 37.94162665 41.61638437 43 47 C44.06827998 48.2450639 45.13117663 49.49477604 46.1875 50.75 C51.75693992 57.16811648 57.95741844 63.03284594 64 69 C63.01 69.495 63.01 69.495 62 70 C59.12750041 68.62946098 56.3933956 67.18636219 53.625 65.625 C52.75665527 65.14039307 51.88831055 64.65578613 50.99365234 64.15649414 C-2.77389565 33.83915653 -2.77389565 33.83915653 -12 20 C-12.3984375 17.0859375 -12.3984375 17.0859375 -12 14 C-10.1015625 11.6640625 -10.1015625 11.6640625 -7.625 9.625 C-6.81289063 8.93664062 -6.00078125 8.24828125 -5.1640625 7.5390625 C-3 6 -3 6 -1 6 C-1 4.68 -1 3.36 -1 2 C-1.54269531 2.22816406 -2.08539063 2.45632813 -2.64453125 2.69140625 C-3.71767578 3.12259766 -3.71767578 3.12259766 -4.8125 3.5625 C-5.52019531 3.85253906 -6.22789062 4.14257812 -6.95703125 4.44140625 C-9 5 -9 5 -12 4 C-4.55088044 -0.67395737 -4.55088044 -0.67395737 0 0 Z " fill="#2A2929" transform="translate(376,641)"/>
<path d="M0 0 C0.7321875 0.39058594 1.464375 0.78117188 2.21875 1.18359375 C1.2596875 1.64765625 1.2596875 1.64765625 0.28125 2.12109375 C-1.71735821 3.01811005 -1.71735821 3.01811005 -2.78125 4.18359375 C-2.23855469 4.5703125 -1.69585938 4.95703125 -1.13671875 5.35546875 C-0.42128906 5.87625 0.29414062 6.39703125 1.03125 6.93359375 C1.73894531 7.4440625 2.44664062 7.95453125 3.17578125 8.48046875 C5.28959845 10.2426567 6.77471545 11.84216233 8.21875 14.18359375 C8.21875 20.00112777 6.17532794 23.18111007 2.21875 27.18359375 C-0.2813539 29.31593029 -2.91124494 31.22543695 -5.59375 33.12109375 C-6.37218262 33.67611572 -7.15061523 34.2311377 -7.95263672 34.80297852 C-22.50849892 45.03877014 -37.8506468 54.12637564 -53.15625 63.18359375 C-54.70820068 64.1106311 -54.70820068 64.1106311 -56.29150391 65.05639648 C-57.72115479 65.89279663 -57.72115479 65.89279663 -59.1796875 66.74609375 C-60.44304932 67.49052734 -60.44304932 67.49052734 -61.73193359 68.25 C-62.40820801 68.55808594 -63.08448242 68.86617187 -63.78125 69.18359375 C-64.44125 68.85359375 -65.10125 68.52359375 -65.78125 68.18359375 C-65.38035156 67.80589844 -64.97945312 67.42820312 -64.56640625 67.0390625 C-59.15357056 61.79806286 -54.45401963 56.08524111 -49.78125 50.18359375 C-49.348125 49.63799805 -48.915 49.09240234 -48.46875 48.53027344 C-47.12861317 46.83659761 -45.7971466 45.13648908 -44.46875 43.43359375 C-43.26798828 41.89445313 -43.26798828 41.89445313 -42.04296875 40.32421875 C-39.67650644 37.03814674 -37.7280316 33.72967648 -35.78125 30.18359375 C-40.17258106 33.04028415 -44.3411324 36.08493876 -48.46875 39.30859375 C-51.52319478 41.68696959 -54.55752329 44.03444261 -57.78125 46.18359375 C-60.74398648 45.80130517 -63.22129398 44.69674605 -65.78125 43.18359375 C-67.08203125 41.4140625 -67.08203125 41.4140625 -68.09375 39.37109375 C-68.44050781 38.70464844 -68.78726563 38.03820312 -69.14453125 37.3515625 C-69.93804439 34.64972327 -69.4001082 32.89442217 -68.78125 30.18359375 C-68.04712891 29.95285156 -67.31300781 29.72210937 -66.55664062 29.484375 C-52.3730828 24.99039863 -38.81113485 20.39445048 -25.78125 13.18359375 C-24.62625 12.58675781 -23.47125 11.98992188 -22.28125 11.375 C-16.06116889 8.14257359 -10.45383533 4.69067056 -5 0.2734375 C-2.78125 -0.81640625 -2.78125 -0.81640625 0 0 Z " fill="#2A2929" transform="translate(649.78125,641.81640625)"/>
<path d="M0 0 C4.38844665 3.30046237 8.93513872 6.76901809 11 12 C10.6875 14.8125 10.6875 14.8125 10 17 C5.40281431 18.42314379 2.71184407 17.43639938 -1.6875 15.6875 C-18.35862547 9.09834622 -38.1608415 8.09798343 -54.87646484 15.05761719 C-63.24728951 18.77242326 -71.58084063 22.77843735 -79.45751953 27.4609375 C-80.24626465 27.92757812 -81.03500977 28.39421875 -81.84765625 28.875 C-82.55027588 29.30554688 -83.25289551 29.73609375 -83.97680664 30.1796875 C-86.41902356 31.16989491 -87.56467463 30.88544864 -90 30 C-89.21149521 19.74943775 -82.1145553 11.84222782 -75 5 C-53.55591437 -12.8412021 -23.44626919 -15.75589289 0 0 Z " fill="#040302" transform="translate(453,448)"/>
<path d="M0 0 C8.58742429 6.92370594 15.78492823 15.14970656 19.31738281 25.74707031 C19.00488281 28.18457031 19.00488281 28.18457031 18.31738281 29.74707031 C14.14731161 29.13607965 11.01188633 27.71588393 7.30957031 25.72753906 C6.15714844 25.11716797 5.00472656 24.50679688 3.81738281 23.87792969 C2.0132859 22.91231896 0.21049874 21.94430998 -1.59179688 20.9753418 C-24.29862518 8.80470727 -43.77345854 6.13113313 -68.49511719 13.30957031 C-70.74127595 14.01323421 -72.69294359 14.7525713 -74.77246094 15.86035156 C-77.36553266 17.06408833 -78.99094597 16.49475676 -81.68261719 15.74707031 C-82.35839844 13.48925781 -82.35839844 13.48925781 -82.68261719 10.74707031 C-76.62798283 -0.40045143 -62.80466285 -6.19098429 -51.44824219 -10.00292969 C-34.37731395 -14.62363207 -14.09891856 -10.49849826 0 0 Z " fill="#030202" transform="translate(641.6826171875,449.2529296875)"/>
<path d="M0 0 C5.34099118 4.15314087 5.34099118 4.15314087 7 7 C6.56103516 9.10473633 6.56103516 9.10473633 6 11 C4.74566162 10.98428955 3.49132324 10.9685791 2.19897461 10.95239258 C-2.52556752 10.89743976 -7.25008239 10.86341604 -11.97485352 10.83520508 C-14.00647761 10.82026548 -16.03807031 10.79990637 -18.06958008 10.77368164 C-34.17986131 10.57116147 -48.34025124 12.03198316 -63.6875 17.3125 C-64.57671143 17.6115625 -65.46592285 17.910625 -66.38208008 18.21875 C-72.53709825 20.34461109 -78.23141035 22.84222154 -83.91796875 26.03125 C-84.60503906 26.3509375 -85.29210937 26.670625 -86 27 C-86.66 26.67 -87.32 26.34 -88 26 C-81.75449966 10.90011943 -71.43875465 1.81740754 -57 -5 C-37.34707673 -12.80670393 -17.91995073 -11.72986022 0 0 Z " fill="#040302" transform="translate(455,370)"/>
<path d="M0 0 C7.94994416 5.92999044 16.91079974 13.63642998 18.64453125 23.765625 C18.76183594 24.83296875 18.87914062 25.9003125 19 27 C17.86046875 26.41992188 16.7209375 25.83984375 15.546875 25.2421875 C3.98569685 19.4856765 -7.48512715 15.17569199 -20 12 C-20.67562988 11.82210938 -21.35125977 11.64421875 -22.04736328 11.4609375 C-38.05448637 7.36882995 -55.68253985 7.99610138 -72 10 C-72.65234375 8.21484375 -72.65234375 8.21484375 -73 6 C-68.10682129 -3.15167735 -57.32556299 -7.15633057 -48 -10 C-31.65195625 -13.90594083 -13.89853159 -8.8252413 0 0 Z " fill="#040302" transform="translate(636,371)"/>
<path d="M0 0 C12.06752044 0.93728314 21.12314308 7.47515052 30.0390625 15.1875 C33.2662102 18.44779434 33.2662102 18.44779434 37.0390625 20.1875 C37.93510618 26.23579486 38.15175693 32.0769576 38.0390625 38.1875 C35.50171815 35.6683445 32.98978299 33.13545715 30.53125 30.5390625 C20.5109013 20.09995295 8.77265328 13.80346822 -3.9609375 7.1875 C-4.0859375 4.8125 -4.0859375 4.8125 -3.9609375 2.1875 C-1.9609375 0.1875 -1.9609375 0.1875 0 0 Z " fill="#E28044" transform="translate(270.9609375,467.8125)"/>
<path d="M0 0 C2 2 2 2 2.1484375 4.328125 C0.31142333 8.60199469 -3.33911418 9.74817485 -7.375 11.75 C-19.42740549 18.08888308 -28.57781188 26.20991733 -38 36 C-39.24141629 32.34719954 -38.85934074 29.34663792 -38.3125 25.5625 C-38.16425781 24.45003906 -38.01601563 23.33757812 -37.86328125 22.19140625 C-35.5759273 13.73544164 -27.13164397 9.24944585 -20 5 C-13.38906495 1.54700256 -7.51550752 -0.97423246 0 0 Z " fill="#E18044" transform="translate(753,469)"/>
<path d="M0 0 C1.52367187 0.32484375 1.52367187 0.32484375 3.078125 0.65625 C17.82709006 3.69211315 30.30471849 2.92512713 45 0 C42.61416075 2.40261141 40.22438766 4.78966096 37.75390625 7.10546875 C31.2503389 13.28443737 25.42176286 19.88779256 24 29 C22.68 29 21.36 29 20 29 C19.86207031 28.37996094 19.72414063 27.75992188 19.58203125 27.12109375 C16.39209195 15.99678765 8.04432807 7.97102101 0 0 Z " fill="#252423" transform="translate(489,743)"/>
<path d="M0 0 C1.2684375 0.12375 1.2684375 0.12375 2.5625 0.25 C4.95536097 3.83929146 4.94744112 5.84839555 5.1875 10.125 C5.22544678 10.78250244 5.26339355 11.44000488 5.30249023 12.11743164 C5.63985489 18.49370011 5.65938516 24.86634423 5.5625 31.25 C2.82344655 32.61952673 0.59162668 32.37621361 -2.4375 32.25 C-3.0975 31.92 -3.7575 31.59 -4.4375 31.25 C-4.46675502 27.56251691 -4.48438418 23.87506408 -4.5 20.1875 C-4.50837891 19.14916016 -4.51675781 18.11082031 -4.52539062 17.04101562 C-4.54242786 11.67428649 -4.48348317 6.52380324 -3.4375 1.25 C-2.4375 0.25 -2.4375 0.25 0 0 Z " fill="#535455" transform="translate(510.4375,780.75)"/>
<path d="M0 0 C2.78214646 2.4111936 2.98495935 3.87752611 3.4375 7.5625 C3 11 3 11 1.3125 12.9375 C-1.51538664 14.23679926 -2.92623325 14.59975937 -6 14 C-8.875 11.9375 -8.875 11.9375 -11 9 C-11.06682582 5.12410244 -10.83569448 2.99045271 -8.3125 0 C-5.10029355 -1.38906225 -3.3063364 -1.05521374 0 0 Z " fill="#E17F43" transform="translate(513,501)"/>
<path d="M0 0 C0.33 0.66 0.66 1.32 1 2 C-4.35094621 9.86200476 -10.09756927 16.47946605 -17 23 C-17.7115625 22.0409375 -17.7115625 22.0409375 -18.4375 21.0625 C-19.83738726 19.11706694 -19.83738726 19.11706694 -21 18 C-19.62799309 13.88397927 -16.75800858 12.46415261 -13.3125 10.125 C-8.67949143 6.93889316 -4.27156474 3.6613412 0 0 Z " fill="#F5DBBF" transform="translate(459,282)"/>
<path d="M0 0 C0.66 0.33 1.32 0.66 2 1 C0.91114502 2.08099976 0.91114502 2.08099976 -0.19970703 3.18383789 C-2.91960143 5.88548656 -5.63606561 8.59056278 -8.3515625 11.29663086 C-9.52219425 12.46226679 -10.69372601 13.62699964 -11.86621094 14.79077148 C-20.75438671 23.59715964 -20.75438671 23.59715964 -29 33 C-29 28.83048082 -27.27042164 27.80585535 -24.4375 24.8125 C-21.38338981 21.55785659 -18.36959652 18.29511863 -15.5 14.875 C-12.02369666 10.85941333 -8.12143217 7.38545493 -4.13671875 3.8828125 C-2.71781641 2.6325183 -1.33725828 1.33725828 0 0 Z " fill="#2A2928" transform="translate(322,196)"/>
<path d="M0 0 C0.33 0.66 0.66 1.32 1 2 C0.00390625 4.1640625 0.00390625 4.1640625 -1.4375 6.625 C-1.91058594 7.44226563 -2.38367188 8.25953125 -2.87109375 9.1015625 C-3.24363281 9.72804688 -3.61617188 10.35453125 -4 11 C-4.99 11 -5.98 11 -7 11 C-9.10139405 12.68427079 -9.10139405 12.68427079 -11.23046875 14.9375 C-12.43413086 16.15566406 -12.43413086 16.15566406 -13.66210938 17.3984375 C-14.91217773 18.68621094 -14.91217773 18.68621094 -16.1875 20 C-17.03248047 20.85851562 -17.87746094 21.71703125 -18.74804688 22.6015625 C-20.83888298 24.7278365 -22.92241983 26.86078464 -25 29 C-25 26 -25 26 -23.13574219 23.81103516 C-22.28141602 22.97878418 -21.42708984 22.1465332 -20.546875 21.2890625 C-19.61746094 20.37382812 -18.68804687 19.45859375 -17.73046875 18.515625 C-16.73739562 17.55165412 -15.74390213 16.58811612 -14.75 15.625 C-12.82441424 13.74591367 -10.90399645 11.86176316 -8.984375 9.9765625 C-7.69611816 8.72480225 -7.69611816 8.72480225 -6.38183594 7.44775391 C-4.0746506 5.07671658 -2.01938611 2.61796065 0 0 Z " fill="#FCF5E7" transform="translate(407,288)"/>
<path d="M0 0 C1 2 1 2 1 5 C2.65 3.68 4.3 2.36 6 1 C4.59155282 4.21524305 2.89655214 6.32183868 0.375 8.75 C-0.57246094 9.67039062 -0.57246094 9.67039062 -1.5390625 10.609375 C-2.02117187 11.06828125 -2.50328125 11.5271875 -3 12 C-3.474375 11.360625 -3.94875 10.72125 -4.4375 10.0625 C-5.83738726 8.11706694 -5.83738726 8.11706694 -7 7 C-5.66667905 3.00003714 -3.5042173 2.16217663 0 0 Z " fill="#FDEED9" transform="translate(445,293)"/>
<path d="M0 0 C1 3 1 3 -1 8 C5.93 8 12.86 8 20 8 C16.31422423 9.84288788 15.27877347 10.24701045 11.453125 10.1953125 C10.18662109 10.18564453 10.18662109 10.18564453 8.89453125 10.17578125 C8.02183594 10.15902344 7.14914062 10.14226563 6.25 10.125 C4.91775391 10.11146484 4.91775391 10.11146484 3.55859375 10.09765625 C1.37227989 10.0741475 -0.81389484 10.03827811 -3 10 C-2.01 6.7 -1.02 3.4 0 0 Z " fill="#EEE2D1" transform="translate(703,562)"/>
<path d="M0 0 C0.33 0 0.66 0 1 0 C1 8.58 1 17.16 1 26 C-0.84187025 23.23719462 -1.72248277 21.19292174 -2.6875 18.0625 C-2.95949219 17.20785156 -3.23148437 16.35320313 -3.51171875 15.47265625 C-4.02075548 12.89489426 -3.84888744 11.45550663 -3 9 C-2.01 10.485 -2.01 10.485 -1 12 C-0.67 8.04 -0.34 4.08 0 0 Z " fill="#5D5E5F" transform="translate(323,820)"/>
<path d="M0 0 C6.78376359 5.55035203 12.85522968 11.76442027 19 18 C18.34 18.33 17.68 18.66 17 19 C14.8359375 18.00390625 14.8359375 18.00390625 12.375 16.5625 C11.55773437 16.08941406 10.74046875 15.61632812 9.8984375 15.12890625 C9.27195312 14.75636719 8.64546875 14.38382813 8 14 C8.99 13.67 9.98 13.34 11 13 C10.2059375 12.22914063 9.411875 11.45828125 8.59375 10.6640625 C7.56223959 9.65130683 6.53100373 8.63827148 5.5 7.625 C4.71302734 6.86316406 4.71302734 6.86316406 3.91015625 6.0859375 C2.56846819 4.76167396 1.28004185 3.38394135 0 2 C0 1.34 0 0.68 0 0 Z " fill="#313030" transform="translate(421,692)"/>
<path d="M0 0 C4.56454251 0.54339792 7.9728176 1.79463821 12 4 C12 4.33 12 4.66 12 5 C10.53240234 5.07347656 10.53240234 5.07347656 9.03515625 5.1484375 C1.83751621 5.55892238 -5.00303049 6.15869223 -12 8 C-11.67 7.34 -11.34 6.68 -11 6 C-8.66752185 5.37147066 -6.30708533 4.84464754 -3.9375 4.375 C-2.64714844 4.11460937 -1.35679687 3.85421875 -0.02734375 3.5859375 C0.97167969 3.39257812 1.97070312 3.19921875 3 3 C2.01 2.01 1.02 1.02 0 0 Z " fill="#2B2A29" transform="translate(661,169)"/>
<path d="M0 0 C4.06498881 1.37184347 6.67396561 3.22068459 9.8125 6.125 C10.99779297 7.21167969 10.99779297 7.21167969 12.20703125 8.3203125 C12.79871094 8.87460937 13.39039063 9.42890625 14 10 C14 7.69 14 5.38 14 3 C16.39073445 6.82517513 16.55966552 10.59665524 17 15 C16.05125 14.175 15.1025 13.35 14.125 12.5 C10.16005196 9.0886792 6.06030497 5.85940404 1.94140625 2.63671875 C1.30074219 2.09660156 0.66007812 1.55648438 0 1 C0 0.67 0 0.34 0 0 Z " fill="#F4E3CD" transform="translate(290,474)"/>
<path d="M0 0 C0 3.90838866 -1.50567876 5.11594107 -4 8 C-3.34 8.66 -2.68 9.32 -2 10 C-3.6188996 11.03048037 -5.24532489 12.04914678 -6.875 13.0625 C-7.77992188 13.63097656 -8.68484375 14.19945312 -9.6171875 14.78515625 C-10.40351562 15.18605469 -11.18984375 15.58695313 -12 16 C-12.66 15.67 -13.32 15.34 -14 15 C-13.36384766 14.38125 -13.36384766 14.38125 -12.71484375 13.75 C-8.24761277 9.35149565 -4.0721472 4.76527863 0 0 Z " fill="#313030" transform="translate(598,695)"/>
<path d="M0 0 C1.32 0.99 2.64 1.98 4 3 C3.49166802 6.76165664 2.8405007 8.50035938 0 11 C-0.66 11.99 -1.32 12.98 -2 14 C-1.85866501 12.22880197 -1.71176792 10.45804713 -1.5625 8.6875 C-1.48128906 7.70136719 -1.40007813 6.71523438 -1.31640625 5.69921875 C-1 3 -1 3 0 0 Z " fill="#E89256" transform="translate(716,491)"/>
<path d="M0 0 C2.38672669 2.96283313 4.7353371 5.94270509 7 9 C6.67 9.66 6.34 10.32 6 11 C5.01 10.01 4.02 9.02 3 8 C2.67 10.31 2.34 12.62 2 15 C1.67 15 1.34 15 1 15 C-0.32286246 10.03926578 -0.08893197 5.08888488 0 0 Z " fill="#F4EBDE" transform="translate(630,307)"/>
<path d="M0 0 C5.28 0 10.56 0 16 0 C16 0.66 16 1.32 16 2 C12.16275828 2.90413673 8.62497726 3.10576898 4.6875 3.0625 C3.61886719 3.05347656 2.55023438 3.04445313 1.44921875 3.03515625 C0.64097656 3.02355469 -0.16726563 3.01195312 -1 3 C-0.67 2.01 -0.34 1.02 0 0 Z " fill="#A32118" transform="translate(468,546)"/>
<path d="M0 0 C1.29065057 3.8719517 0.22324098 6.44232601 -0.9375 10.1875 C-1.23043945 11.16879883 -1.23043945 11.16879883 -1.52929688 12.16992188 C-2.01182563 13.78227407 -2.50490205 15.39146289 -3 17 C-3.33 17 -3.66 17 -4 17 C-4.10832169 14.91781638 -4.18573541 12.83400871 -4.25 10.75 C-4.29640625 9.58984375 -4.3428125 8.4296875 -4.390625 7.234375 C-3.93035506 3.42333987 -2.94851556 2.34488245 0 0 Z " fill="#5E5F5F" transform="translate(703,829)"/>
<path d="M0 0 C2.03219488 3.40351338 2.36891039 6.3232927 2.625 10.25 C2.69976563 11.32765625 2.77453125 12.4053125 2.8515625 13.515625 C2.92503906 14.74539063 2.92503906 14.74539063 3 16 C-0.23965088 14.38017456 -0.80011577 12.35967583 -2 9 C-1.6707484 5.8898387 -0.921709 2.98395 0 0 Z " fill="#2A2928" transform="translate(773,333)"/>
<path d="M0 0 C0.33 0.66 0.66 1.32 1 2 C-0.98 4.64 -2.96 7.28 -5 10 C-6.32 9.34 -7.64 8.68 -9 8 C-6.03 5.36 -3.06 2.72 0 0 Z " fill="#F2E8DA" transform="translate(459,282)"/>
<path d="M0 0 C0 3.3 0 6.6 0 10 C-2.79872437 7.47211993 -4.45773019 5.79588866 -5 2 C-1.125 0 -1.125 0 0 0 Z " fill="#E5894D" transform="translate(309,496)"/>
<path d="M0 0 C4.95 0 9.9 0 15 0 C11.66069372 3.33930628 10.57968121 3.34589964 6.03515625 3.3984375 C4 3 4 3 0 0 Z " fill="#E9CCB0" transform="translate(554,532)"/>
<path d="M0 0 C2.45536509 2.45536509 2.61976279 3.57786512 3 7 C2.73128549 9.34165499 2.40961596 11.67884289 2 14 C1.01 13.34 0.02 12.68 -1 12 C-0.67 8.04 -0.34 4.08 0 0 Z " fill="#F3D4B5" transform="translate(632,313)"/>
<path d="M0 0 C0.66 0.33 1.32 0.66 2 1 C-0.79716804 4.29078593 -4.19528578 6.06305458 -8 8 C-8.66 7.67 -9.32 7.34 -10 7 C-6.7 4.69 -3.4 2.38 0 0 Z " fill="#5D5D5E" transform="translate(560,737)"/>
<path d="M0 0 C0.33 0.66 0.66 1.32 1 2 C0.22265625 3.9453125 0.22265625 3.9453125 -0.9375 6.125 C-1.31777344 6.84945313 -1.69804687 7.57390625 -2.08984375 8.3203125 C-2.39019531 8.87460937 -2.69054687 9.42890625 -3 10 C-3.66 8.68 -4.32 7.36 -5 6 C-3.35 4.02 -1.7 2.04 0 0 Z " fill="#EDE2D5" transform="translate(407,288)"/>
<path d="M0 0 C0.66 0.33 1.32 0.66 2 1 C1.49396008 3.16874252 1.00016187 4.99967627 0 7 C-2 5.625 -2 5.625 -4 4 C-4 3.34 -4 2.68 -4 2 C-2.125 0.9375 -2.125 0.9375 0 0 Z " fill="#E55B53" transform="translate(455,587)"/>
<path d="M0 0 C3.465 1.485 3.465 1.485 7 3 C5.35 4.32 3.7 5.64 2 7 C1.34 4.69 0.68 2.38 0 0 Z " fill="#F4DEC7" transform="translate(577,692)"/>
<path d="M0 0 C-1.98 1.32 -3.96 2.64 -6 4 C-6 3.34 -6 2.68 -6 2 C-6.99 1.67 -7.98 1.34 -9 1 C-2.25 -1.125 -2.25 -1.125 0 0 Z " fill="#2D2C2C" transform="translate(534,744)"/>
<path d="M0 0 C2.875 -0.1875 2.875 -0.1875 6 0 C6.66 0.99 7.32 1.98 8 3 C5.36 3 2.72 3 0 3 C0 2.01 0 1.02 0 0 Z " fill="#D47942" transform="translate(491,683)"/>
<path d="M0 0 C2.475 0.99 2.475 0.99 5 2 C4.01 2.33 3.02 2.66 2 3 C1.67 3.99 1.34 4.98 1 6 C-1.0625 6.6875 -1.0625 6.6875 -3 7 C-2.67 6.34 -2.34 5.68 -2 5 C-1.34 5 -0.68 5 0 5 C0 3.35 0 1.7 0 0 Z " fill="#323130" transform="translate(375,642)"/>
</svg>
